<svg xmlns="http://www.w3.org/2000/svg"><symbol id="soundcloud" viewBox="0 0 70 70"><path d="M35 0C15.7 0 0 15.7 0 35s15.7 35 35 35 35-15.7 35-35S54.3 0 35 0zM9.3 43.3c0 .1-.1.2-.2.2s-.2-.1-.2-.2l-.4-2.9.4-2.9c0-.1.1-.2.2-.2s.2.1.2.2l.5 2.9-.5 2.9zm2 1.8c0 .1-.1.2-.2.2s-.2-.1-.2-.2l-.5-4.7.5-4.8c0-.1.1-.2.2-.2s.2.1.2.2l.6 4.8-.6 4.7zm2.1.8c0 .2-.1.3-.3.3-.1 0-.3-.1-.3-.3l-.5-5.4.5-5.6c0-.2.1-.3.3-.3.1 0 .2.1.3.3l.6 5.6-.6 5.4zm2.2.1c0 .2-.1.3-.3.3-.2 0-.3-.1-.3-.3l-.5-5.6.5-5.8c0-.2.1-.3.3-.3.2 0 .3.1.3.3l.5 5.8-.5 5.6zm2.1.1c0 .2-.2.4-.4.4s-.3-.2-.4-.4l-.4-5.7.5-5.4c0-.2.2-.4.4-.4s.3.2.4.3l.5 5.4-.6 5.8zm2.2 0c0 .2-.2.4-.4.4s-.4-.2-.4-.4l-.4-5.7.4-8.8c0-.2.2-.4.4-.4s.4.2.4.4l.5 8.8-.5 5.7zm2.2-.1c0 .2-.2.4-.4.4s-.4-.2-.4-.4l-.4-5.6.4-10.8c0-.2.2-.4.4-.4s.4.2.4.4l.4 10.8-.4 5.6zm2.2 0c0 .3-.2.5-.5.5s-.5-.2-.5-.5l-.3-5.6.4-11.7c0-.3.2-.5.5-.5s.5.2.5.5l.4 11.7-.5 5.6zm2.2-.1c0 .3-.2.5-.5.5s-.5-.2-.5-.5l-.3-5.5.3-12.1c0-.3.2-.5.5-.5s.5.2.5.5l.4 12.1-.4 5.5zm2.3 0c0 .3-.3.6-.6.6s-.6-.3-.6-.6l-.3-5.5.3-11.7c0-.3.3-.6.6-.6s.6.3.6.6l.3 11.7-.3 5.5zm2.2 0c0 .3-.3.6-.6.6s-.6-.3-.6-.6l-.3-5.4.3-11.3c0-.4.3-.6.6-.6s.6.3.6.6l.3 11.3-.3 5.4zm2.3-.1c0 .4-.3.7-.7.7-.4 0-.7-.3-.7-.7l-.3-5.4L32 27c0-.4.3-.7.7-.7.4 0 .7.3.7.7l.3 13.5-.4 5.3zm2.3 0c0 .4-.3.7-.7.7-.4 0-.7-.3-.7-.7l-.3-5.3.3-14.7c0-.4.3-.7.7-.7.4 0 .7.3.7.7l.3 14.7-.3 5.3zm19.4.7H36.9c-.4 0-.7-.4-.7-.8V25c0-.4.1-.6.6-.8 1.3-.5 2.7-.8 4.2-.8 6 0 10.9 4.6 11.5 10.5.8-.3 1.6-.5 2.5-.5 3.6 0 6.5 2.9 6.5 6.5 0 3.7-2.9 6.6-6.5 6.6z"/></symbol><symbol id="spotify" viewBox="0 0 70 70"><path d="M35 0C15.7 0 0 15.7 0 35s15.7 35 35 35 35-15.7 35-35S54.3 0 35 0zm16.1 50.5c-.6 1-2 1.4-3 .7-8.2-5-18.6-6.2-30.7-3.4-1.2.3-2.3-.5-2.6-1.6-.3-1.2.5-2.3 1.6-2.6 13.3-3 24.8-1.7 34 3.9 1 .6 1.3 2 .7 3zm4.2-9.5c-.8 1.3-2.5 1.7-3.8.9-9.4-5.8-23.7-7.5-34.9-4.1-1.4.4-3-.4-3.4-1.8-.4-1.4.4-3 1.8-3.4 12.7-3.9 28.5-2 39.3 4.6 1.4.8 1.8 2.5 1 3.8zm.4-10c-11.3-6.7-29.9-7.3-40.7-4-1.7.5-3.6-.5-4.1-2.2-.5-1.7.5-3.6 2.2-4.1 12.4-3.8 32.9-3 45.9 4.7 1.6.9 2.1 2.9 1.1 4.5-.8 1.5-2.8 2.1-4.4 1.1z"/></symbol><symbol id="youtube" viewBox="0 0 70 70"><path d="M17.1 32.7c-.7 0-1 .5-.9 1.7V39c-.1 1.1.2 1.7.9 1.7s1-.6.9-1.7v-4.6c.1-1.1-.3-1.7-.9-1.7z"/><path d="M35 0C15.7 0 0 15.7 0 35s15.7 35 35 35 35-15.7 35-35S54.3 0 35 0zM11.6 42.4H9.3v-6.3S6.9 28.4 6.5 27h2.4l1.6 6 1.6-6h2.4l-2.8 9.1v6.3zm8.6-3.7c0 1.2-.2 2.1-.6 2.6-.6.8-1.5 1.2-2.4 1.2-.9 0-1.8-.4-2.4-1.2-.4-.6-.7-1.4-.7-2.6v-4.1c0-1.2.2-2.2.7-2.7.6-.8 1.4-1.1 2.4-1.1.9 0 1.8.3 2.4 1.1.4.6.7 1.5.7 2.7v4.1zm7.6 3.7h-2.2v-1.3c-.8.9-1.5 1.4-2.3 1.4-.7 0-1.1-.3-1.4-.9-.1-.3-.2-.9-.2-1.7v-9.1h2.2v9.3c.1.3.2.4.5.4.4 0 .8-.4 1.2-1v-8.8h2.2v11.7zm35.4-.6s-.3 2.3-1.4 3.4c-1.3 1.3-2.7 1.4-3.4 1.4-4.8.3-11.9.4-11.9.4s-8.8-.1-11.6-.3c-.8-.1-2.5-.1-3.7-1.4-1-1-1.4-3.4-1.4-3.4s-.3-2.7-.3-5.5v-2.6c0-2.7.3-5.5.3-5.5s.3-2.3 1.4-3.4c1.3-1.3 2.7-1.4 3.4-1.4 4.8-.3 11.9-.3 11.9-.3s7.1 0 11.9.3c.7.1 2.1.1 3.4 1.4 1 1 1.4 3.4 1.4 3.4s.3 2.7.3 5.5v2.6c0 2.6-.3 5.4-.3 5.4z"/><path d="M60.7 37v-2.3c0-1.2-.2-2.1-.7-2.7-.6-.8-1.4-1.2-2.4-1.2-1.1 0-1.9.4-2.5 1.2-.4.6-.7 1.5-.7 2.7v4c0 1.2.3 2.1.7 2.6.6.8 1.4 1.2 2.5 1.2s1.9-.4 2.5-1.2c.3-.4.4-.8.5-1.2 0-.2.1-.7.1-1.3v-.3h-2.2v1.4c-.1.6-.4.8-.9.8-.7 0-1-.5-1-1.6v-2h4.1zm-4.1-3c0-1.1.3-1.4 1-1.4s1 .3 1 1.4v1.2h-1.9V34zm-5.5-3.2c-.8 0-1.5.5-2.2 1.3v-5h-2v15.2h2v-1.1c.7.9 1.4 1.3 2.2 1.3.8 0 1.4-.4 1.7-1.3.1-.5.2-1.2.2-2.3v-4.6c0-1.1-.1-1.8-.3-2.3-.2-.7-.8-1.2-1.6-1.2zm-.2 8.3c0 1.1-.3 1.6-.9 1.6-.3 0-.7-.2-1.1-.5v-6.9c.3-.3.7-.5 1.1-.5.6 0 .9.3.9 1.5v4.8zm-5.7 3.3H43v-1.3c-.8.9-1.5 1.4-2.3 1.4-.7 0-1.1-.3-1.4-.9-.1-.3-.2-.9-.2-1.7v-9h2.2V40.1c.1.3.2.4.5.4.4 0 .8-.4 1.2-1V31h2.2v11.4zm-8.2 0h-2.3V29.3h-2.4v-2.2h7.2v2.2H37v13.1z"/></symbol></svg>