<!-- Generator: Adobe Illustrator 19.0.0, SVG Export Plug-In  -->
<svg version="1.1"
	 xmlns="http://www.w3.org/2000/svg" xmlns:xlink="http://www.w3.org/1999/xlink" xmlns:a="http://ns.adobe.com/AdobeSVGViewerExtensions/3.0/"
	 x="0px" y="0px" width="70px" height="70px" viewBox="0 0 70 70" style="enable-background:new 0 0 70 70;" xml:space="preserve">
<defs>
</defs>
<path d="M35,0C15.7,0,0,15.7,0,35s15.7,35,35,35s35-15.7,35-35S54.3,0,35,0z M9.3,43.3c0,0.1-0.1,0.2-0.2,0.2
	c-0.1,0-0.2-0.1-0.2-0.2l-0.4-2.9l0.4-2.9c0-0.1,0.1-0.2,0.2-0.2c0.1,0,0.2,0.1,0.2,0.2l0.5,2.9L9.3,43.3z M11.3,45.1
	c0,0.1-0.1,0.2-0.2,0.2c-0.1,0-0.2-0.1-0.2-0.2l-0.5-4.7c0,0,0.5-4.8,0.5-4.8c0-0.1,0.1-0.2,0.2-0.2c0.1,0,0.2,0.1,0.2,0.2l0.6,4.8
	L11.3,45.1z M13.4,45.9c0,0.2-0.1,0.3-0.3,0.3c-0.1,0-0.3-0.1-0.3-0.3l-0.5-5.4c0,0,0.5-5.6,0.5-5.6c0-0.2,0.1-0.3,0.3-0.3
	c0.1,0,0.2,0.1,0.3,0.3l0.6,5.6L13.4,45.9z M15.6,46c0,0.2-0.1,0.3-0.3,0.3c-0.2,0-0.3-0.1-0.3-0.3l-0.5-5.6l0.5-5.8
	c0-0.2,0.1-0.3,0.3-0.3c0.2,0,0.3,0.1,0.3,0.3l0.5,5.8L15.6,46z M17.7,46.1c0,0.2-0.2,0.4-0.4,0.4c-0.2,0-0.3-0.2-0.4-0.4l-0.4-5.7
	L17,35c0-0.2,0.2-0.4,0.4-0.4c0.2,0,0.3,0.2,0.4,0.3l0.5,5.4L17.7,46.1z M19.9,46.1L19.9,46.1c0,0.2-0.2,0.4-0.4,0.4
	c-0.2,0-0.4-0.2-0.4-0.4l-0.4-5.7l0.4-8.8c0-0.2,0.2-0.4,0.4-0.4c0.2,0,0.4,0.2,0.4,0.4l0.5,8.8L19.9,46.1z M22.1,46
	c0,0.2-0.2,0.4-0.4,0.4c-0.2,0-0.4-0.2-0.4-0.4l-0.4-5.6c0,0,0.4-10.8,0.4-10.8c0-0.2,0.2-0.4,0.4-0.4c0.2,0,0.4,0.2,0.4,0.4
	l0.4,10.8L22.1,46z M24.3,46c0,0.3-0.2,0.5-0.5,0.5c-0.3,0-0.5-0.2-0.5-0.5L23,40.4c0,0,0.4-11.7,0.4-11.7c0-0.3,0.2-0.5,0.5-0.5
	c0.3,0,0.5,0.2,0.5,0.5l0.4,11.7L24.3,46z M26.5,45.9L26.5,45.9c0,0.3-0.2,0.5-0.5,0.5c-0.3,0-0.5-0.2-0.5-0.5l-0.3-5.5l0.3-12.1
	c0-0.3,0.2-0.5,0.5-0.5c0.3,0,0.5,0.2,0.5,0.5l0.4,12.1L26.5,45.9z M28.8,45.9L28.8,45.9c0,0.3-0.3,0.6-0.6,0.6
	c-0.3,0-0.6-0.3-0.6-0.6l-0.3-5.5l0.3-11.7c0-0.3,0.3-0.6,0.6-0.6c0.3,0,0.6,0.3,0.6,0.6l0.3,11.7L28.8,45.9z M31,45.9L31,45.9
	c0,0.3-0.3,0.6-0.6,0.6c-0.3,0-0.6-0.3-0.6-0.6l-0.3-5.4l0.3-11.3c0-0.4,0.3-0.6,0.6-0.6c0.3,0,0.6,0.3,0.6,0.6l0.3,11.3L31,45.9z
	 M33.3,45.8c0,0.4-0.3,0.7-0.7,0.7c-0.4,0-0.7-0.3-0.7-0.7c0,0-0.3-5.4-0.3-5.4L32,27c0-0.4,0.3-0.7,0.7-0.7c0.4,0,0.7,0.3,0.7,0.7
	l0.3,13.5L33.3,45.8z M35.6,45.8L35.6,45.8c0,0.4-0.3,0.7-0.7,0.7c-0.4,0-0.7-0.3-0.7-0.7l-0.3-5.3l0.3-14.7c0-0.4,0.3-0.7,0.7-0.7
	c0.4,0,0.7,0.3,0.7,0.7l0.3,14.7L35.6,45.8z M55,46.5c-0.1,0-18.1,0-18.1,0c-0.4,0-0.7-0.4-0.7-0.8V25c0-0.4,0.1-0.6,0.6-0.8
	c1.3-0.5,2.7-0.8,4.2-0.8c6,0,10.9,4.6,11.5,10.5c0.8-0.3,1.6-0.5,2.5-0.5c3.6,0,6.5,2.9,6.5,6.5C61.5,43.6,58.6,46.5,55,46.5z"/>
</svg>
