<!-- Generator: Adobe Illustrator 19.0.0, SVG Export Plug-In  -->
<svg version="1.1"
	 xmlns="http://www.w3.org/2000/svg" xmlns:xlink="http://www.w3.org/1999/xlink" xmlns:a="http://ns.adobe.com/AdobeSVGViewerExtensions/3.0/"
	 x="0px" y="0px" width="70px" height="70px" viewBox="0 0 70 70" style="enable-background:new 0 0 70 70;" xml:space="preserve">
<defs>
</defs>
<path d="M35,0C15.7,0,0,15.7,0,35s15.7,35,35,35c19.3,0,35-15.7,35-35S54.3,0,35,0z M51.1,50.5c-0.6,1-2,1.4-3,0.7
	c-8.2-5-18.6-6.2-30.7-3.4c-1.2,0.3-2.3-0.5-2.6-1.6c-0.3-1.2,0.5-2.3,1.6-2.6c13.3-3,24.8-1.7,34,3.9
	C51.4,48.1,51.7,49.5,51.1,50.5z M55.3,41c-0.8,1.3-2.5,1.7-3.8,0.9c-9.4-5.8-23.7-7.5-34.9-4.1c-1.4,0.4-3-0.4-3.4-1.8
	c-0.4-1.4,0.4-3,1.8-3.4c12.7-3.9,28.5-2,39.3,4.6C55.7,38,56.1,39.7,55.3,41z M55.7,31c-11.3-6.7-29.9-7.3-40.7-4
	c-1.7,0.5-3.6-0.5-4.1-2.2c-0.5-1.7,0.5-3.6,2.2-4.1c12.4-3.8,32.9-3,45.9,4.7c1.6,0.9,2.1,2.9,1.1,4.5C59.3,31.4,57.3,32,55.7,31z"
	/>
</svg>
