<!-- Generator: Adobe Illustrator 19.0.0, SVG Export Plug-In  -->
<svg version="1.1"
	 xmlns="http://www.w3.org/2000/svg" xmlns:xlink="http://www.w3.org/1999/xlink" xmlns:a="http://ns.adobe.com/AdobeSVGViewerExtensions/3.0/"
	 x="0px" y="0px" width="70px" height="70px" viewBox="0 0 70 70" style="enable-background:new 0 0 70 70;" xml:space="preserve">
<defs>
</defs>
<g>
	<path d="M17.1,32.7c-0.7,0-1,0.5-0.9,1.7v4.6c-0.1,1.1,0.2,1.7,0.9,1.7c0.7,0,1-0.6,0.9-1.7l0-4.6C18.1,33.3,17.7,32.7,17.1,32.7z"
		/>
	<path d="M35,0C15.7,0,0,15.7,0,35s15.7,35,35,35s35-15.7,35-35S54.3,0,35,0z M11.6,42.4H9.3v-6.3c0,0-2.4-7.7-2.8-9.1h2.4l1.6,6
		l1.6-6h2.4l-2.8,9.1V42.4z M20.2,38.7c0,1.2-0.2,2.1-0.6,2.6c-0.6,0.8-1.5,1.2-2.4,1.2c-0.9,0-1.8-0.4-2.4-1.2
		c-0.4-0.6-0.7-1.4-0.7-2.6l0-4.1c0-1.2,0.2-2.2,0.7-2.7c0.6-0.8,1.4-1.1,2.4-1.1c0.9,0,1.8,0.3,2.4,1.1c0.4,0.6,0.7,1.5,0.7,2.7
		V38.7z M27.8,42.4h-2.2v-1.3c-0.8,0.9-1.5,1.4-2.3,1.4c-0.7,0-1.1-0.3-1.4-0.9c-0.1-0.3-0.2-0.9-0.2-1.7v-9.1h2.2v8.5
		c0,0.5,0,0.7,0,0.8c0.1,0.3,0.2,0.4,0.5,0.4c0.4,0,0.8-0.4,1.2-1v-8.8h2.2V42.4z M63.2,41.8c0,0-0.3,2.3-1.4,3.4
		c-1.3,1.3-2.7,1.4-3.4,1.4c-4.8,0.3-11.9,0.4-11.9,0.4s-8.8-0.1-11.6-0.3c-0.8-0.1-2.5-0.1-3.7-1.4c-1-1-1.4-3.4-1.4-3.4
		s-0.3-2.7-0.3-5.5v-2.6c0-2.7,0.3-5.5,0.3-5.5s0.3-2.3,1.4-3.4c1.3-1.3,2.7-1.4,3.4-1.4c4.8-0.3,11.9-0.3,11.9-0.3h0
		c0,0,7.1,0,11.9,0.3c0.7,0.1,2.1,0.1,3.4,1.4c1,1,1.4,3.4,1.4,3.4s0.3,2.7,0.3,5.5v2.6C63.5,39,63.2,41.8,63.2,41.8z"/>
	<path d="M60.7,37l0-2.3c0-1.2-0.2-2.1-0.7-2.7c-0.6-0.8-1.4-1.2-2.4-1.2c-1.1,0-1.9,0.4-2.5,1.2c-0.4,0.6-0.7,1.5-0.7,2.7v4
		c0,1.2,0.3,2.1,0.7,2.6c0.6,0.8,1.4,1.2,2.5,1.2c1.1,0,1.9-0.4,2.5-1.2c0.3-0.4,0.4-0.8,0.5-1.2c0-0.2,0.1-0.7,0.1-1.3v-0.3h-2.2
		c0,0.8,0,1.3,0,1.4c-0.1,0.6-0.4,0.8-0.9,0.8c-0.7,0-1-0.5-1-1.6v-2H60.7z M56.6,34c0-1.1,0.3-1.4,1-1.4c0.7,0,1,0.3,1,1.4v1.2
		l-1.9,0V34z M51.1,30.8c-0.8,0-1.5,0.5-2.2,1.3l0-5h-2v15.2h2l0-1.1c0.7,0.9,1.4,1.3,2.2,1.3c0.8,0,1.4-0.4,1.7-1.3
		c0.1-0.5,0.2-1.2,0.2-2.3v-4.6c0-1.1-0.1-1.8-0.3-2.3C52.5,31.3,51.9,30.8,51.1,30.8z M50.9,39.1c0,1.1-0.3,1.6-0.9,1.6
		c-0.3,0-0.7-0.2-1.1-0.5l0-6.9c0.3-0.3,0.7-0.5,1.1-0.5c0.6,0,0.9,0.3,0.9,1.5V39.1z M45.2,42.4H43v-1.3c-0.8,0.9-1.5,1.4-2.3,1.4
		c-0.7,0-1.1-0.3-1.4-0.9c-0.1-0.3-0.2-0.9-0.2-1.7v-9h2.2v8.4c0,0.5,0,0.7,0,0.8c0.1,0.3,0.2,0.4,0.5,0.4c0.4,0,0.8-0.4,1.2-1V31
		h2.2V42.4z M37,42.4h-2.3V29.3h-2.4v-2.2l7.2,0v2.2H37V42.4z"/>
</g>
</svg>
